<svg xmlns="http://www.w3.org/2000/svg" viewBox="0 0 220 160" role="img" aria-label="Knowledge graph illustration">
  <defs>
    <linearGradient id="kbGrad" x1="0" y1="0" x2="1" y2="1">
      <stop offset="0%" stop-color="#2c5b50"/>
      <stop offset="100%" stop-color="#c79b4b"/>
    </linearGradient>
    <filter id="soft" x="-20%" y="-20%" width="140%" height="140%">
      <feGaussianBlur in="SourceGraphic" stdDeviation="0.6"/>
    </filter>
  </defs>
  <rect x="1" y="1" width="218" height="158" rx="18" fill="#f7efe1" stroke="#e2d7c8"/>
  <g fill="none" stroke="#d9cbb4" stroke-width="2">
    <path d="M30 118c20-30 50-50 86-54 30-4 54 5 74 24"/>
    <path d="M32 44c22 8 44 8 64-2 18-8 30-20 44-34"/>
  </g>
  <g stroke="#2c5b50" stroke-width="2" fill="#fffdf7">
    <circle cx="40" cy="120" r="10"/>
    <circle cx="88" cy="78" r="12"/>
    <circle cx="146" cy="64" r="10"/>
    <circle cx="182" cy="96" r="11"/>
  </g>
  <g fill="url(#kbGrad)">
    <circle cx="40" cy="120" r="5"/>
    <circle cx="88" cy="78" r="6"/>
    <circle cx="146" cy="64" r="5"/>
    <circle cx="182" cy="96" r="6"/>
  </g>
  <g stroke="url(#kbGrad)" stroke-width="3" stroke-linecap="round" filter="url(#soft)">
    <path d="M40 120 L88 78 L146 64 L182 96"/>
  </g>
  <g fill="#2f3e39" font-family="'Avenir Next','Gill Sans','Trebuchet MS',sans-serif" font-size="10" letter-spacing="1">
    <text x="24" y="34">KB MAP</text>
  </g>
</svg>
